<svg width="25" height="25" viewBox="0 0 25 25" fill="none" xmlns="http://www.w3.org/2000/svg">
<g clip-path="url(#clip0_1_44)">
<path fill-rule="evenodd" clip-rule="evenodd" d="M23.4219 20H21.9219V9.5C21.9219 8.67157 21.2503 8 20.4219 8H14.4219V3.5C14.4222 2.94654 14.1178 2.43784 13.6299 2.17662C13.1419 1.91539 12.5498 1.94408 12.0894 2.25125L4.58938 7.25C4.1715 7.5288 3.92092 7.99828 3.92188 8.50062V20H2.42188C2.00766 20 1.67188 20.3358 1.67188 20.75C1.67188 21.1642 2.00766 21.5 2.42188 21.5H23.4219C23.8361 21.5 24.1719 21.1642 24.1719 20.75C24.1719 20.3358 23.8361 20 23.4219 20ZM20.4219 9.5V20H14.4219V9.5H20.4219ZM5.42188 8.50062L12.9219 3.5V20H5.42188V8.50062ZM11.4219 11V12.5C11.4219 12.9142 11.0861 13.25 10.6719 13.25C10.2577 13.25 9.92188 12.9142 9.92188 12.5V11C9.92188 10.5858 10.2577 10.25 10.6719 10.25C11.0861 10.25 11.4219 10.5858 11.4219 11ZM8.42188 11V12.5C8.42188 12.9142 8.08609 13.25 7.67188 13.25C7.25766 13.25 6.92188 12.9142 6.92188 12.5V11C6.92188 10.5858 7.25766 10.25 7.67188 10.25C8.08609 10.25 8.42188 10.5858 8.42188 11ZM8.42188 16.25V17.75C8.42188 18.1642 8.08609 18.5 7.67188 18.5C7.25766 18.5 6.92188 18.1642 6.92188 17.75V16.25C6.92188 15.8358 7.25766 15.5 7.67188 15.5C8.08609 15.5 8.42188 15.8358 8.42188 16.25ZM11.4219 16.25V17.75C11.4219 18.1642 11.0861 18.5 10.6719 18.5C10.2577 18.5 9.92188 18.1642 9.92188 17.75V16.25C9.92188 15.8358 10.2577 15.5 10.6719 15.5C11.0861 15.5 11.4219 15.8358 11.4219 16.25Z" fill="#A1824A"/>
</g>
<defs>
<clipPath id="clip0_1_44">
<rect width="24" height="24" fill="white" transform="translate(0.921875 0.5)"/>
</clipPath>
</defs>
</svg>
