<svg width="25" height="25" viewBox="0 0 25 25" fill="none" xmlns="http://www.w3.org/2000/svg">
<path fill-rule="evenodd" clip-rule="evenodd" d="M16.3516 10.625C16.3516 13.5245 14.0011 15.875 11.1016 15.875C8.20207 15.875 5.85156 13.5245 5.85156 10.625C5.85156 7.72553 8.20207 5.37503 11.1016 5.37503C14.0011 5.37503 16.3516 7.72553 16.3516 10.625ZM22.1322 21.6557C21.9915 21.7965 21.8006 21.8756 21.6016 21.8756C21.4025 21.8756 21.2116 21.7965 21.0709 21.6557L16.3778 16.9616C12.9873 19.7822 7.97803 19.4374 5.00602 16.1788C2.03401 12.9202 2.15051 7.90041 5.27048 4.78319C8.39046 1.66597 13.4104 1.55391 16.6663 4.5288C19.9223 7.50369 20.2627 12.5133 17.4391 15.9013L22.1322 20.5944C22.273 20.7351 22.3522 20.926 22.3522 21.125C22.3522 21.3241 22.273 21.515 22.1322 21.6557ZM11.1016 17.375C14.8295 17.375 17.8516 14.3529 17.8516 10.625C17.8516 6.8971 14.8295 3.87503 11.1016 3.87503C7.37364 3.87503 4.35156 6.8971 4.35156 10.625C4.3557 14.3512 7.37535 17.3709 11.1016 17.375Z" fill="#1C170D"/>
</svg>
