<svg width="25" height="25" viewBox="0 0 25 25" fill="none" xmlns="http://www.w3.org/2000/svg">
<g clip-path="url(#clip0_1_25)">
<path fill-rule="evenodd" clip-rule="evenodd" d="M22.1472 18.0397L17.8347 12.5H20.0547C20.3405 12.5 20.6014 12.3376 20.7277 12.0812C20.8539 11.8248 20.8234 11.519 20.6491 11.2925L13.1491 1.5425C13.0071 1.35801 12.7875 1.2499 12.5547 1.2499C12.3219 1.2499 12.1023 1.35801 11.9603 1.5425L4.46031 11.2925C4.28598 11.519 4.2555 11.8248 4.38172 12.0812C4.50793 12.3376 4.7689 12.5 5.05469 12.5H7.27094L2.95844 18.0397C2.78219 18.2664 2.75086 18.5739 2.87776 18.8315C3.00467 19.0891 3.26753 19.2516 3.55469 19.25H11.8047V23C11.8047 23.4142 12.1405 23.75 12.5547 23.75C12.9689 23.75 13.3047 23.4142 13.3047 23V19.25H21.5547C21.8412 19.2501 22.1027 19.0871 22.2287 18.8298C22.3546 18.5725 22.323 18.2659 22.1472 18.0397ZM5.08844 17.75L9.40094 12.2103C9.57719 11.9836 9.60852 11.6761 9.48161 11.4185C9.3547 11.1609 9.09185 10.9984 8.80469 11H6.57812L12.5547 3.23L18.5312 11H16.3047C16.0184 11.0002 15.7572 11.1634 15.6314 11.4207C15.5057 11.6779 15.5374 11.9843 15.7131 12.2103L20.0209 17.75H5.08844Z" fill="#736A5A"/>
</g>
<defs>
<clipPath id="clip0_1_25">
<rect width="24" height="24" fill="white" transform="translate(0.554688 0.5)"/>
</clipPath>
</defs>
</svg>
