<svg width="25" height="25" viewBox="0 0 25 25" fill="none" xmlns="http://www.w3.org/2000/svg">
<g clip-path="url(#clip0_1_178)">
<path fill-rule="evenodd" clip-rule="evenodd" d="M19.7109 3.125H4.71094C3.88251 3.125 3.21094 3.79657 3.21094 4.625V19.625C3.21094 20.4534 3.88251 21.125 4.71094 21.125H19.7109C20.5394 21.125 21.2109 20.4534 21.2109 19.625V4.625C21.2109 3.79657 20.5394 3.125 19.7109 3.125ZM19.7109 4.625V14.375H17.0203C16.6226 14.374 16.241 14.5323 15.9609 14.8147L14.1506 16.625H10.2712L8.46094 14.8147C8.1806 14.5321 7.79867 14.3737 7.40063 14.375H4.71094V4.625H19.7109ZM19.7109 19.625H4.71094V15.875H7.40063L9.21094 17.6853C9.49127 17.9679 9.87321 18.1263 10.2712 18.125H14.1506C14.5487 18.1263 14.9306 17.9679 15.2109 17.6853L17.0212 15.875H19.7109V19.625Z" fill="#A1824A"/>
</g>
<defs>
<clipPath id="clip0_1_178">
<rect width="24" height="24" fill="white" transform="translate(0.210938 0.125)"/>
</clipPath>
</defs>
</svg>
