<svg width="25" height="25" viewBox="0 0 25 25" fill="none" xmlns="http://www.w3.org/2000/svg">
<g clip-path="url(#clip0_1_52)">
<path fill-rule="evenodd" clip-rule="evenodd" d="M15.7422 8C17.1919 8 18.3672 6.82475 18.3672 5.375C18.3672 3.92525 17.1919 2.75 15.7422 2.75C14.2924 2.75 13.1172 3.92525 13.1172 5.375C13.1172 6.82475 14.2924 8 15.7422 8ZM15.7422 4.25C16.3635 4.25 16.8672 4.75368 16.8672 5.375C16.8672 5.99632 16.3635 6.5 15.7422 6.5C15.1209 6.5 14.6172 5.99632 14.6172 5.375C14.6172 4.75368 15.1209 4.25 15.7422 4.25ZM24.2622 18.8675L19.1472 10.235C18.8787 9.77734 18.3868 9.49728 17.8563 9.5C17.3259 9.49723 16.8343 9.77734 16.5662 10.235L14.1138 14.375L9.91 7.24062C9.64047 6.78255 9.14867 6.50131 8.61719 6.50131C8.0857 6.50131 7.5939 6.78255 7.32438 7.24062L0.47125 18.8694C0.334703 19.1012 0.332803 19.3884 0.466273 19.622C0.599743 19.8557 0.848129 19.9999 1.11719 20H23.6172C23.8867 20 24.1354 19.8553 24.2688 19.6212C24.4021 19.387 24.3996 19.0993 24.2622 18.8675ZM8.61719 8L10.8269 11.75H6.4075L8.61719 8ZM2.42969 18.5L5.52344 13.25H11.7109L13.4678 16.2312L14.8047 18.5H2.42969ZM16.5456 18.5L14.9838 15.8488L17.8563 11L22.3047 18.5H16.5456Z" fill="#A1824A"/>
</g>
<defs>
<clipPath id="clip0_1_52">
<rect width="24" height="24" fill="white" transform="translate(0.367188 0.5)"/>
</clipPath>
</defs>
</svg>
