<svg width="25" height="25" viewBox="0 0 25 25" fill="none" xmlns="http://www.w3.org/2000/svg">
<g clip-path="url(#clip0_1_187)">
<path fill-rule="evenodd" clip-rule="evenodd" d="M12.4141 2.375C7.02929 2.375 2.66406 6.74022 2.66406 12.125C2.66406 17.5098 7.02929 21.875 12.4141 21.875C17.7988 21.875 22.1641 17.5098 22.1641 12.125C22.1584 6.74258 17.7965 2.38068 12.4141 2.375ZM7.35906 18.6406C8.46167 16.9162 10.3673 15.8728 12.4141 15.8728C14.4609 15.8728 16.3665 16.9162 17.4691 18.6406C14.4957 20.953 10.3324 20.953 7.35906 18.6406ZM9.41406 11.375C9.41406 9.71815 10.7572 8.375 12.4141 8.375C14.0709 8.375 15.4141 9.71815 15.4141 11.375C15.4141 13.0319 14.0709 14.375 12.4141 14.375C10.7572 14.375 9.41406 13.0319 9.41406 11.375ZM18.5791 17.6009C17.7426 16.3888 16.5664 15.4511 15.1984 14.9056C16.7047 13.7193 17.2938 11.7088 16.666 9.89707C16.0382 8.08539 14.3314 6.87048 12.4141 6.87048C10.4967 6.87048 8.7899 8.08539 8.16211 9.89707C7.53432 11.7088 8.12342 13.7193 9.62969 14.9056C8.2617 15.4511 7.08553 16.3888 6.24906 17.6009C3.30452 14.2897 3.50158 9.24381 6.69539 6.1723C9.88919 3.10079 14.9389 3.10079 18.1327 6.1723C21.3265 9.24381 21.5236 14.2897 18.5791 17.6009Z" fill="#A1824A"/>
</g>
<defs>
<clipPath id="clip0_1_187">
<rect width="24" height="24" fill="white" transform="translate(0.414062 0.125)"/>
</clipPath>
</defs>
</svg>
