<svg width="25" height="25" viewBox="0 0 25 25" fill="none" xmlns="http://www.w3.org/2000/svg">
<g clip-path="url(#clip0_1_16)">
<path fill-rule="evenodd" clip-rule="evenodd" d="M21.2188 4.25H4.71875C3.89032 4.25 3.21875 4.92157 3.21875 5.75V19.25C3.21875 20.0784 3.89032 20.75 4.71875 20.75H21.2188C22.0472 20.75 22.7188 20.0784 22.7188 19.25V5.75C22.7188 4.92157 22.0472 4.25 21.2188 4.25ZM19.3044 16.9212C19.2369 16.955 17.6272 17.75 15.9688 17.75C14.2916 17.75 13.4103 17.3094 12.6331 16.9212C11.9131 16.5612 11.2916 16.25 9.96875 16.25C8.67125 16.25 7.31656 16.9147 7.30344 16.9212C6.93272 17.1064 6.48213 16.9559 6.29703 16.5852C6.11193 16.2144 6.2624 15.7639 6.63312 15.5787C6.70062 15.545 8.31031 14.75 9.96875 14.75C11.6459 14.75 12.5272 15.1906 13.3044 15.5787C14.0244 15.9387 14.6459 16.25 15.9688 16.25C17.2663 16.25 18.6209 15.5853 18.6341 15.5787C19.0048 15.3936 19.4554 15.5441 19.6405 15.9148C19.8256 16.2856 19.6751 16.7361 19.3044 16.9212ZM19.3044 13.1713C19.2369 13.205 17.6272 14 15.9688 14C14.2916 14 13.4103 13.5594 12.6331 13.1713C11.9131 12.8113 11.2916 12.5 9.96875 12.5C8.67125 12.5 7.31656 13.1647 7.30344 13.1713C6.93272 13.3564 6.48213 13.2059 6.29703 12.8352C6.11193 12.4644 6.2624 12.0139 6.63312 11.8287C6.70062 11.795 8.31031 11 9.96875 11C11.6459 11 12.5272 11.4406 13.3044 11.8287C14.0244 12.1887 14.6459 12.5 15.9688 12.5C17.2663 12.5 18.6209 11.8353 18.6341 11.8287C19.0048 11.6436 19.4554 11.7941 19.6405 12.1648C19.8256 12.5356 19.6751 12.9861 19.3044 13.1713ZM19.3044 9.42125C19.2369 9.455 17.6272 10.25 15.9688 10.25C14.2916 10.25 13.4103 9.80938 12.6331 9.42125C11.9131 9.06125 11.2916 8.75 9.96875 8.75C8.67125 8.75 7.31656 9.41469 7.30344 9.42125C6.93272 9.60635 6.48213 9.45588 6.29703 9.08516C6.11193 8.71444 6.2624 8.26385 6.63312 8.07875C6.70062 8.045 8.31031 7.25 9.96875 7.25C11.6459 7.25 12.5272 7.69063 13.3044 8.07875C14.0244 8.43875 14.6459 8.75 15.9688 8.75C17.2663 8.75 18.6209 8.08531 18.6341 8.07875C19.0048 7.89365 19.4554 8.04412 19.6405 8.41484C19.8256 8.78556 19.6751 9.23615 19.3044 9.42125Z" fill="#1C170D"/>
</g>
<defs>
<clipPath id="clip0_1_16">
<rect width="24" height="24" fill="white" transform="translate(0.96875 0.5)"/>
</clipPath>
</defs>
</svg>
