<svg width="24" height="25" viewBox="0 0 24 25" fill="none" xmlns="http://www.w3.org/2000/svg">
<g clip-path="url(#clip0_1_169)">
<path fill-rule="evenodd" clip-rule="evenodd" d="M19.5078 6.875H2.25781V4.625C2.25781 4.21079 1.92203 3.875 1.50781 3.875C1.0936 3.875 0.757812 4.21079 0.757812 4.625V19.625C0.757812 20.0392 1.0936 20.375 1.50781 20.375C1.92203 20.375 2.25781 20.0392 2.25781 19.625V16.625H21.7578V19.625C21.7578 20.0392 22.0936 20.375 22.5078 20.375C22.922 20.375 23.2578 20.0392 23.2578 19.625V10.625C23.2578 8.55393 21.5789 6.875 19.5078 6.875ZM2.25781 8.375H9.00781V15.125H2.25781V8.375ZM10.5078 15.125V8.375H19.5078C20.7505 8.375 21.7578 9.38236 21.7578 10.625V15.125H10.5078Z" fill="#A1824A"/>
</g>
<defs>
<clipPath id="clip0_1_169">
<rect width="24" height="24" fill="white" transform="translate(0.0078125 0.125)"/>
</clipPath>
</defs>
</svg>
