<svg width="25" height="25" viewBox="0 0 25 25" fill="none" xmlns="http://www.w3.org/2000/svg">
<g clip-path="url(#clip0_1_160)">
<path fill-rule="evenodd" clip-rule="evenodd" d="M17.4922 3.125C15.5562 3.125 13.8612 3.9575 12.8047 5.36469C11.7481 3.9575 10.0531 3.125 8.11719 3.125C4.90853 3.12862 2.3083 5.72884 2.30469 8.9375C2.30469 15.5 12.035 20.8119 12.4494 21.0312C12.6712 21.1506 12.9382 21.1506 13.16 21.0312C13.5744 20.8119 23.3047 15.5 23.3047 8.9375C23.3011 5.72884 20.7008 3.12862 17.4922 3.125ZM12.8047 19.5125C11.0928 18.515 3.80469 13.9709 3.80469 8.9375C3.80779 6.55706 5.73674 4.6281 8.11719 4.625C9.94063 4.625 11.4716 5.59625 12.1109 7.15625C12.2265 7.43759 12.5005 7.62127 12.8047 7.62127C13.1088 7.62127 13.3829 7.43759 13.4984 7.15625C14.1378 5.59344 15.6687 4.625 17.4922 4.625C19.8726 4.6281 21.8016 6.55706 21.8047 8.9375C21.8047 13.9634 14.5147 18.5141 12.8047 19.5125Z" fill="#A1824A"/>
</g>
<defs>
<clipPath id="clip0_1_160">
<rect width="24" height="24" fill="white" transform="translate(0.804688 0.125)"/>
</clipPath>
</defs>
</svg>
